<?xml version="1.0" encoding="utf-8"?>
<!-- Generator: Adobe Illustrator 25.3.1, SVG Export Plug-In . SVG Version: 6.00 Build 0)  -->
<svg version="1.1" id="whaleLogo" xmlns="http://www.w3.org/2000/svg" xmlns:xlink="http://www.w3.org/1999/xlink" x="0px" y="0px"
	 viewBox="0 0 65.5 50" style="enable-background:new 0 0 65.5 50;" xml:space="preserve">
<style type="text/css">
	.st0{fill:#474D58;}
</style>
<g id="XMLID_1_">
	<g id="XMLID_4_">
		<path id="XMLID_15_" class="st0" d="M41.3,2.7C41.7,2.7,42,2.4,42,2V0.8c0-0.4,0.3-0.7,0.7-0.7h1.2c0.4,0,0.7,0.3,0.7,0.7V2
			c0,0.4,0.3,0.7,0.7,0.7h1.1c0.4,0,0.7-0.3,0.7-0.7V0.8c0-0.4,0.3-0.7,0.7-0.7H49c0.4,0,0.7,0.3,0.7,0.7V2c0,0.4,0.3,0.7,0.7,0.7
			h1.1c0.4,0,0.7,0.3,0.7,0.7v1.2c0,0.4-0.3,0.7-0.7,0.7h-1.2c-0.4,0-0.7-0.3-0.7-0.7V3.4c0-0.4-0.3-0.7-0.7-0.7h-1.1
			c-0.4,0-0.7,0.3-0.7,0.7v3.8c0,0.4-0.3,0.7-0.7,0.7h-1.2c-0.4,0-0.7-0.3-0.7-0.7V3.4c0-0.4-0.3-0.7-0.7-0.7h-1.1
			C42.3,2.7,42,3,42,3.4v1.1c0,0.4-0.3,0.7-0.7,0.7h-1.2c-0.4,0-0.7-0.3-0.7-0.7V3.4c0-0.4,0.3-0.7,0.7-0.7H41.3z"/>
	</g>
	<g>
		<path id="XMLID_26_" class="st0" d="M0.7,13.2c-0.4,0-0.7,0.3-0.7,0.7V23c0,0.4,0.3,0.7,0.7,0.7h1.2c0.4,0,0.7,0.3,0.7,0.7v1.2
			c0,0.4,0.3,0.7,0.7,0.7h1.2c0.4,0,0.7,0.3,0.7,0.7v6.4c0,0.4,0.3,0.7,0.7,0.7h1.2c0.4,0,0.7,0.3,0.7,0.7v3.8
			c0,0.4,0.3,0.7,0.7,0.7h1.2c0.4,0,0.7,0.3,0.7,0.7v1.2c0,0.4,0.3,0.7,0.7,0.7h1.2c0.4,0,0.7,0.3,0.7,0.7v1.2
			c0,0.4,0.3,0.7,0.7,0.7h6.4c0.4,0,0.7,0.3,0.7,0.7v1.2c0,0.4-0.3,0.7-0.7,0.7h-1.2c-0.4,0-0.7,0.3-0.7,0.7V49
			c0,0.4,0.3,0.7,0.7,0.7h6.4c0.4,0,0.7-0.3,0.7-0.7v-1c0-0.4,0.3-0.7,0.7-0.7h1.2c0.4,0,0.7-0.3,0.7-0.7v-1.2
			c0-0.4,0.3-0.7,0.7-0.7h30c0.4,0,0.7-0.3,0.7-0.7v-1.2c0-0.4,0.3-0.7,0.7-0.7h1.2c0.4,0,0.7-0.3,0.7-0.7v-1.2
			c0-0.4-0.3-0.7-0.7-0.7H34.6c-0.4,0-0.7-0.3-0.7-0.7v-1.2c0-0.4-0.3-0.7-0.7-0.7h-1c-0.4,0-0.7-0.3-0.7-0.7V35
			c0-0.4,0.3-0.7,0.7-0.7h1.6c0.4,0,0.7,0.3,0.7,0.7v1.2c0,0.4,0.3,0.7,0.7,0.7h29.6c0.4,0,0.7-0.3,0.7-0.7V35c0-0.4,0-1,0-1.4V16.5
			c0-0.4-0.3-0.7-0.7-0.7h-1.2c-0.4,0-0.7-0.3-0.7-0.7v-1.2c0-0.4-0.3-0.7-0.7-0.7H61c-0.4,0-0.7-0.3-0.7-0.7v-1.2
			c0-0.4-0.3-0.7-0.7-0.7H26.9c-0.4,0-0.7,0.3-0.7,0.7v1.2c0,0.4-0.3,0.7-0.7,0.7h-1.2c-0.4,0-0.7,0.3-0.7,0.7v1.2
			c0,0.4-0.3,0.7-0.7,0.7h-1.2c-0.4,0-0.7,0.3-0.7,0.7v11.7c0,0.4-0.3,0.7-0.7,0.7h-1.2c-0.4,0-0.7,0.3-0.7,0.7v1.2
			c0,0.4-0.3,0.7-0.7,0.7h-1.2c-0.4,0-0.7-0.3-0.7-0.7v-1.2c0-0.4-0.3-0.7-0.7-0.7h-1.2c-0.4,0-0.7-0.3-0.7-0.7V27
			c0-0.4,0.3-0.7,0.7-0.7H15c0.4,0,0.7-0.3,0.7-0.7v-1.2c0-0.4,0.3-0.7,0.7-0.7h1.2c0.4,0,0.7-0.3,0.7-0.7v-9.1
			c0-0.4-0.3-0.7-0.7-0.7h-1.2c-0.4,0-0.7,0.3-0.7,0.7v1.2c0,0.4-0.3,0.7-0.7,0.7h-3.8c-0.4,0-0.7,0.3-0.7,0.7v1.2
			c0,0.4-0.3,0.7-0.7,0.7H8.6c-0.4,0-0.7-0.3-0.7-0.7v-1.2c0-0.4-0.3-0.7-0.7-0.7H3.3c-0.4,0-0.7-0.3-0.7-0.7v-1.2
			c0-0.4-0.3-0.7-0.7-0.7C1.9,13.2,0.7,13.2,0.7,13.2z M36.7,29.6c0-0.4,0.3-0.7,0.7-0.7h1.2c0.4,0,0.7,0.3,0.7,0.7v1.2
			c0,0.4-0.3,0.7-0.7,0.7h-1.2c-0.4,0-0.7-0.3-0.7-0.7V29.6z"/>
	</g>
</g>
</svg>
